<svg width="146" height="146" viewBox="0 0 146 146" fill="none" xmlns="http://www.w3.org/2000/svg">
<path d="M111.191 15.8735C83.147 16.3966 63.6114 2.22651 50.0983 2.48201C36.5852 2.73751 8.34227 11.0352 9.50622 73.2109C10.6702 135.387 49.0235 143.794 63.8912 143.518C133.497 142.216 160.864 14.9447 111.191 15.8735V15.8735Z" fill="#EFEFEF"/>
<path d="M113.556 27.375H67.9306C63.4492 27.375 59.8195 31.0047 59.8195 35.4861V41.5694V92.2639V98.3472C59.8195 102.829 63.4492 106.458 67.9306 106.458H84.1528H113.556V27.375Z" fill="#F3F3F1"/>
<path d="M68.9445 98.3472V92.2639V41.5694V35.4861C68.9445 31.0047 72.5742 27.375 77.0556 27.375H67.9306C63.4492 27.375 59.8195 31.0047 59.8195 35.4861V41.5694V92.2639V98.3472C59.8195 102.829 63.4492 106.458 67.9306 106.458H77.0556C72.5742 106.458 68.9445 102.829 68.9445 98.3472Z" fill="#D5DBE1"/>
<path d="M84.1527 40.5556V113.556C84.1527 116.354 86.4238 118.625 89.2222 118.625C89.7899 118.625 90.3172 118.544 90.8444 118.382L115.178 110.271C117.165 109.581 118.625 107.675 118.625 105.444V32.4444C118.625 29.6461 116.354 27.375 113.555 27.375C112.988 27.375 112.46 27.4561 111.933 27.6183L87.5999 35.7294C85.6127 36.4189 84.1527 38.325 84.1527 40.5556V40.5556Z" fill="#5F2EEA"/>
<path d="M93.2777 112.542V39.5417C93.2777 37.3111 94.7377 35.405 96.7249 34.7156L116.196 28.2267C115.417 27.7319 114.545 27.375 113.556 27.375C112.988 27.375 112.461 27.4561 111.933 27.6183L87.5999 35.7294C85.6127 36.4189 84.1527 38.325 84.1527 40.5556V113.556C84.1527 116.354 86.4238 118.625 89.2222 118.625C89.7899 118.625 90.3172 118.544 90.8444 118.382L95.707 116.759C94.2794 115.863 93.2777 114.35 93.2777 112.542V112.542Z" fill="#5F2EEA"/>
<path d="M42.9138 14.6562L45.7815 11.7885L51.5169 17.5239L48.6492 20.3916L42.9138 14.6562Z" fill="#A4AFC1"/>
<path d="M42.194 34.0126L47.9294 28.2771L50.7971 31.1448L45.0617 36.8803L42.194 34.0126Z" fill="#A4AFC1"/>
<path d="M58.6879 17.5295L64.4233 11.7941L67.291 14.6618L61.5556 20.3972L58.6879 17.5295Z" fill="#A4AFC1"/>
<path d="M120.126 130.792C116.772 130.792 114.042 128.062 114.042 124.708C114.042 121.354 116.772 118.625 120.126 118.625C123.48 118.625 126.209 121.354 126.209 124.708C126.209 128.062 123.48 130.792 120.126 130.792ZM120.126 122.681C119.01 122.681 118.098 123.593 118.098 124.708C118.098 125.824 119.01 126.736 120.126 126.736C121.241 126.736 122.153 125.824 122.153 124.708C122.153 123.593 121.245 122.681 120.126 122.681Z" fill="#A4AFC1"/>
<path d="M27.375 63.875H65.9028V69.9583H27.375V63.875Z" fill="black"/>
<path d="M52.8439 84.2744L48.545 79.9756L61.6039 66.9167L48.545 53.8578L52.848 49.5548L68.0563 64.7632C69.2446 65.9514 69.2446 67.8778 68.0563 69.0661L52.8439 84.2744Z" fill="black"/>
<path d="M89.2222 121.667C84.7489 121.667 81.1111 118.029 81.1111 113.556V40.5556C81.1111 37.0921 83.3173 33.9937 86.6023 32.8581L110.972 24.7308C116.471 23.0518 121.667 27.1073 121.667 32.4444V105.444C121.667 108.904 119.464 111.998 116.179 113.142L91.8056 121.269C90.9134 121.545 90.0901 121.667 89.2222 121.667ZM113.556 30.4167C113.296 30.4167 113.069 30.4491 112.821 30.5221L88.5611 38.6129C87.7744 38.8887 87.1944 39.6917 87.1944 40.5556V113.556C87.1904 114.934 88.6504 115.863 89.9563 115.478L114.217 107.387C115.003 107.111 115.583 106.308 115.583 105.444V32.4444C115.583 31.3292 114.671 30.4167 113.556 30.4167Z" fill="black"/>
<path d="M62.8612 41.5695H56.7778V35.4861C56.7778 29.3338 61.7783 24.3333 67.9306 24.3333H113.556V30.4167H67.9306C65.1363 30.4167 62.8612 32.6918 62.8612 35.4861V41.5695Z" fill="black"/>
<path d="M84.1528 109.5H67.9306C61.7783 109.5 56.7778 104.499 56.7778 98.3472V92.2639H62.8612V98.3472C62.8612 101.141 65.1363 103.417 67.9306 103.417H84.1528V109.5Z" fill="black"/>
</svg>
