<svg width="144" height="144" viewBox="0 0 144 144" fill="none" xmlns="http://www.w3.org/2000/svg">
<path d="M114.559 137.25H103.5L99 132.75L99.0669 11.25L134.498 17.5134C135.229 17.6428 135.88 18.0564 136.308 18.664C136.736 19.2716 136.906 20.0238 136.781 20.7563L117.332 134.91C117.22 135.565 116.881 136.159 116.373 136.587C115.866 137.015 115.223 137.25 114.559 137.25V137.25Z" fill="#FDBF44"/>
<path d="M99.0669 11.25L99 132.75L103.5 137.25H108V12.8292L99.0669 11.25Z" fill="#E6AD3E"/>
<path d="M100.688 6.75H9.5625C8.0092 6.75 6.75 8.0092 6.75 9.5625V134.438C6.75 135.991 8.0092 137.25 9.5625 137.25H100.688C102.241 137.25 103.5 135.991 103.5 134.438V9.5625C103.5 8.0092 102.241 6.75 100.688 6.75Z" fill="#5F2EEA"/>
<path d="M34.875 72H23.625C20.5184 72 18 74.5184 18 77.625V88.875C18 91.9816 20.5184 94.5 23.625 94.5H34.875C37.9816 94.5 40.5 91.9816 40.5 88.875V77.625C40.5 74.5184 37.9816 72 34.875 72Z" fill="#FCFEFF"/>
<path d="M34.875 105.75H23.625C20.5184 105.75 18 108.268 18 111.375V122.625C18 125.732 20.5184 128.25 23.625 128.25H34.875C37.9816 128.25 40.5 125.732 40.5 122.625V111.375C40.5 108.268 37.9816 105.75 34.875 105.75Z" fill="#FCFEFF"/>
<path d="M31.5 90C31.2045 90 30.9119 89.9419 30.6389 89.8288C30.366 89.7157 30.1179 89.55 29.909 89.3411L23.159 82.5911L26.341 79.409L31.3729 84.4408L43.2917 70.5356L46.7083 73.4645L33.2083 89.2145C33.0065 89.4498 32.7583 89.6409 32.4792 89.7758C32.2001 89.9107 31.8961 89.9865 31.5863 89.9983C31.5577 90 31.5281 90 31.5 90V90Z" fill="#7F59EB"/>
<path d="M31.5 123.75C31.2045 123.75 30.9119 123.692 30.6389 123.579C30.366 123.466 30.1179 123.3 29.909 123.091L23.159 116.341L26.341 113.159L31.3729 118.191L43.2917 104.286L46.7083 107.215L33.2083 122.965C33.0065 123.2 32.7583 123.391 32.4792 123.526C32.2001 123.661 31.8961 123.736 31.5863 123.748C31.5577 123.75 31.5281 123.75 31.5 123.75V123.75Z" fill="#7F59EB"/>
<path d="M51.75 103.5H85.5V108H51.75V103.5Z" fill="#FCFEFF"/>
<path d="M51.75 114.75H63V119.25H51.75V114.75Z" fill="#FCFEFF"/>
<path d="M67.5 114.75H85.5V119.25H67.5V114.75Z" fill="#FCFEFF"/>
<path d="M51.75 69.75H85.5V74.25H51.75V69.75Z" fill="#FCFEFF"/>
<path d="M51.75 81H63V85.5H51.75V81Z" fill="#FCFEFF"/>
<path d="M67.5 81H85.5V85.5H67.5V81Z" fill="#FCFEFF"/>
<path d="M56.2219 15.75L36 24.7672L37.6855 35.4687C39.2911 44.1784 44.1764 51.9404 51.3349 57.1551L56.2402 60.7677L60.9134 57.3705C68.1671 52.1583 73.1222 44.3413 74.7408 35.557L76.4437 24.7672L56.2219 15.75ZM55.537 44.3579C55.1151 44.7798 54.5428 45.0168 53.9461 45.0168C53.3495 45.0168 52.7772 44.7798 52.3552 44.3579L45.6052 37.6079L48.7873 34.425L53.9466 39.584L65.8555 27.675L69.0373 30.8568L55.537 44.3579Z" fill="#FCFEFF"/>
<path d="M15.75 13.5H29.25V18H15.75V13.5Z" fill="#FCFEFF"/>
<path d="M15.75 22.5H24.75V27H15.75V22.5Z" fill="#FCFEFF"/>
<path d="M83.25 13.5H87.75V18H83.25V13.5Z" fill="#FCFEFF"/>
<path d="M92.25 13.5H96.75V18H92.25V13.5Z" fill="#FCFEFF"/>
</svg>
